<svg width="28" height="28" viewBox="0 0 28 28" fill="none" xmlns="http://www.w3.org/2000/svg">
<path fill-rule="evenodd" clip-rule="evenodd" d="M14.1059 19.9393C13.5201 20.5251 13.5201 21.4749 14.1059 22.0606C14.6917 22.6464 15.6415 22.6464 16.2272 22.0606L23.2272 15.0606C23.813 14.4749 23.813 13.5251 23.2272 12.9393L16.2272 5.93932C16.1895 5.90155 16.1502 5.86621 16.1096 5.83331L14.2236 5.83331C14.183 5.86621 14.1437 5.90155 14.1059 5.93932C13.5201 6.52511 13.5201 7.47485 14.1059 8.06064L18.5453 12.5L5.83325 12.5C5.00483 12.5 4.33325 13.1716 4.33325 14C4.33325 14.8284 5.00483 15.5 5.83325 15.5L18.5453 15.5L14.1059 19.9393Z" fill="white"/>
</svg>
