<svg width="41" height="40" viewBox="0 0 41 40" fill="none" xmlns="http://www.w3.org/2000/svg">
<path fill-rule="evenodd" clip-rule="evenodd" d="M26.5579 10.6133H14.6681C12.7703 10.6133 11.2263 12.1573 11.2263 14.0551V25.9448C11.2263 27.8426 12.7703 29.3871 14.6681 29.3871H26.5579C28.4557 29.3871 30.0001 27.8431 30.0001 25.9448V14.0551C30.0001 12.1573 28.4561 10.6133 26.5579 10.6133ZM20.613 26.1804C17.2054 26.1804 14.433 23.4079 14.433 19.9999C14.433 16.5924 17.2054 13.8199 20.613 13.8199C24.021 13.8199 26.7934 16.5924 26.7934 19.9999C26.7934 23.4075 24.0205 26.1804 20.613 26.1804ZM25.5294 13.6355C25.5294 14.4417 26.1854 15.0977 26.9921 15.0977C27.7983 15.0977 28.4543 14.4417 28.4543 13.6355C28.4543 12.8293 27.7983 12.1733 26.9921 12.1733C26.1854 12.1733 25.5294 12.8293 25.5294 13.6355Z" fill="#9CA3AF"/>
<path d="M20.6131 16.4316C18.646 16.4316 17.0442 18.0325 17.0442 19.9996C17.0442 21.9676 18.646 23.569 20.6131 23.569C22.5811 23.569 24.1815 21.9676 24.1815 19.9996C24.1815 18.033 22.5806 16.4316 20.6131 16.4316Z" fill="#9CA3AF"/>
<path fill-rule="evenodd" clip-rule="evenodd" d="M0.666748 19.9462C0.666748 8.93067 9.59741 0 20.613 0C31.6285 0 40.5592 8.93067 40.5592 19.9462C40.5592 30.9618 31.6285 39.8924 20.613 39.8924C9.59741 39.8924 0.666748 30.9618 0.666748 19.9462ZM26.5579 31.9982C29.8961 31.9982 32.6112 29.2831 32.6112 25.9449V14.0551C32.6112 10.7173 29.8961 8.00178 26.5579 8.00178H14.6681C11.3303 8.00178 8.61475 10.7173 8.61475 14.0551V25.9449C8.61475 29.2831 11.3303 31.9982 14.6681 31.9982H26.5579Z" fill="#9CA3AF"/>
</svg>
