<svg width="41" height="40" viewBox="0 0 41 40" fill="none" xmlns="http://www.w3.org/2000/svg">
<path d="M20.5244 39.7154C31.4916 39.7154 40.3821 30.8248 40.3821 19.8577C40.3821 8.89059 31.4916 0 20.5244 0C9.55734 0 0.666748 8.89059 0.666748 19.8577C0.666748 30.8248 9.55734 39.7154 20.5244 39.7154Z" fill="#9CA3AF"/>
<path fill-rule="evenodd" clip-rule="evenodd" d="M19.7744 28.5671H21.333C21.333 28.5671 21.8038 28.5154 22.0442 28.2563C22.2654 28.0184 22.2583 27.5717 22.2583 27.5717C22.2583 27.5717 22.2279 25.4804 23.1985 25.1724C24.1553 24.869 25.384 27.1936 26.6863 28.0874C27.6711 28.7639 28.4194 28.6156 28.4194 28.6156L31.9015 28.5671C31.9015 28.5671 33.7231 28.4549 32.8594 27.0227C32.7886 26.9055 32.3564 25.9632 30.2704 24.0269C28.087 22.0004 28.3794 22.3282 31.0095 18.8227C32.6112 16.6878 33.2516 15.3844 33.0516 14.8262C32.8608 14.2945 31.6827 14.4351 31.6827 14.4351L27.762 14.4595C27.762 14.4595 27.4714 14.4198 27.2558 14.5487C27.0452 14.6751 26.9096 14.9696 26.9096 14.9696C26.9096 14.9696 26.2891 16.6216 25.4615 18.0266C23.7157 20.9912 23.0176 21.1476 22.7323 20.9635C22.0686 20.5345 22.2342 19.24 22.2342 18.3204C22.2342 15.4474 22.67 14.2496 21.3858 13.9395C20.9596 13.8365 20.6459 13.7685 19.556 13.7575C18.1571 13.743 16.973 13.7618 16.3026 14.0903C15.8565 14.3087 15.5125 14.7954 15.722 14.8234C15.9812 14.8581 16.5681 14.9816 16.8792 15.4053C17.281 15.9519 17.2668 17.1795 17.2668 17.1795C17.2668 17.1795 17.4976 20.5614 16.7277 20.9816C16.1992 21.2697 15.4742 20.6814 13.9178 17.9919C13.1203 16.6142 12.5181 15.0913 12.5181 15.0913C12.5181 15.0913 12.402 14.8067 12.195 14.6545C11.9436 14.4701 11.5925 14.4113 11.5925 14.4113L7.86681 14.4358C7.86681 14.4358 7.30752 14.4513 7.10221 14.6945C6.91956 14.9108 7.0877 15.3582 7.0877 15.3582C7.0877 15.3582 10.0045 22.1823 13.3072 25.6212C16.3355 28.7742 19.7744 28.5671 19.7744 28.5671Z" fill="white"/>
</svg>
